<mxfile host="app.diagrams.net" modified="2021-09-03T07:39:07.405Z" agent="5.0 (Windows NT 10.0; Win64; x64) AppleWebKit/537.36 (KHTML, like Gecko) Chrome/92.0.4515.159 Safari/537.36" etag="n5b7YOcbcXDFSBXaBd8i" version="15.0.2" type="github">
  <diagram id="A48rxkqS8taGA3FP0SlE" name="Page-1">
    <mxGraphModel dx="1422" dy="737" grid="1" gridSize="10" guides="1" tooltips="1" connect="1" arrows="1" fold="1" page="1" pageScale="1" pageWidth="827" pageHeight="1169" math="1" shadow="0">
      <root>
        <mxCell id="0" />
        <mxCell id="1" parent="0" />
        <mxCell id="4VnncRjoAFdzeTJe6IzV-1" value="" style="rounded=1;whiteSpace=wrap;html=1;fillColor=#d5e8d4;strokeColor=#82b366;" vertex="1" parent="1">
          <mxGeometry x="210" y="180" width="580" height="390" as="geometry" />
        </mxCell>
        <mxCell id="4VnncRjoAFdzeTJe6IzV-2" value="Training GOOSE message&amp;nbsp;&lt;br&gt;$${x}_t=\{{{x}_{1}},{{x}_{2}},...,{{x}_{n}}\}$$" style="rounded=1;whiteSpace=wrap;html=1;fillColor=#fff2cc;strokeColor=#d6b656;" vertex="1" parent="1">
          <mxGeometry x="397" y="200" width="154" height="70" as="geometry" />
        </mxCell>
        <mxCell id="4VnncRjoAFdzeTJe6IzV-3" value="Past event history&amp;nbsp;" style="rounded=1;whiteSpace=wrap;html=1;fillColor=#fff2cc;strokeColor=#d6b656;" vertex="1" parent="1">
          <mxGeometry x="231" y="317" width="120" height="70" as="geometry" />
        </mxCell>
        <mxCell id="4VnncRjoAFdzeTJe6IzV-4" value="Deep Neural Network&amp;nbsp;" style="rounded=1;whiteSpace=wrap;html=1;fillColor=#fff2cc;strokeColor=#d6b656;" vertex="1" parent="1">
          <mxGeometry x="400" y="315" width="160" height="75" as="geometry" />
        </mxCell>
        <mxCell id="4VnncRjoAFdzeTJe6IzV-5" value="DoS" style="rounded=1;whiteSpace=wrap;html=1;fillColor=#fff2cc;strokeColor=#d6b656;" vertex="1" parent="1">
          <mxGeometry x="380" y="440" width="120" height="60" as="geometry" />
        </mxCell>
        <mxCell id="4VnncRjoAFdzeTJe6IzV-6" value="Normal" style="rounded=1;whiteSpace=wrap;html=1;fillColor=#fff2cc;strokeColor=#d6b656;" vertex="1" parent="1">
          <mxGeometry x="240" y="440" width="120" height="60" as="geometry" />
        </mxCell>
        <mxCell id="4VnncRjoAFdzeTJe6IzV-7" value="Tampering" style="rounded=1;whiteSpace=wrap;html=1;fillColor=#fff2cc;strokeColor=#d6b656;" vertex="1" parent="1">
          <mxGeometry x="520" y="440" width="120" height="60" as="geometry" />
        </mxCell>
        <mxCell id="4VnncRjoAFdzeTJe6IzV-8" value="Spoofing" style="rounded=1;whiteSpace=wrap;html=1;fillColor=#fff2cc;strokeColor=#d6b656;" vertex="1" parent="1">
          <mxGeometry x="660" y="440" width="120" height="60" as="geometry" />
        </mxCell>
        <mxCell id="4VnncRjoAFdzeTJe6IzV-12" value="" style="shape=flexArrow;endArrow=classic;html=1;entryX=0;entryY=0.6;entryDx=0;entryDy=0;entryPerimeter=0;fillColor=#1ba1e2;strokeColor=#006EAF;exitX=0.992;exitY=0.629;exitDx=0;exitDy=0;exitPerimeter=0;" edge="1" parent="1">
          <mxGeometry width="50" height="50" relative="1" as="geometry">
            <mxPoint x="352.03999999999996" y="353.03" as="sourcePoint" />
            <mxPoint x="400" y="353" as="targetPoint" />
          </mxGeometry>
        </mxCell>
        <mxCell id="4VnncRjoAFdzeTJe6IzV-13" value="" style="shape=flexArrow;endArrow=classic;html=1;fillColor=#1ba1e2;strokeColor=#006EAF;" edge="1" parent="1" target="4VnncRjoAFdzeTJe6IzV-4">
          <mxGeometry width="50" height="50" relative="1" as="geometry">
            <mxPoint x="479" y="270" as="sourcePoint" />
            <mxPoint x="506" y="270" as="targetPoint" />
          </mxGeometry>
        </mxCell>
        <mxCell id="4VnncRjoAFdzeTJe6IzV-15" value="" style="line;strokeWidth=2;html=1;" vertex="1" parent="1">
          <mxGeometry x="310" y="410" width="420" height="10" as="geometry" />
        </mxCell>
        <mxCell id="4VnncRjoAFdzeTJe6IzV-19" value="" style="line;strokeWidth=4;direction=south;html=1;perimeter=backbonePerimeter;points=[];outlineConnect=0;" vertex="1" parent="1">
          <mxGeometry x="304" y="414" width="10" height="26" as="geometry" />
        </mxCell>
        <mxCell id="4VnncRjoAFdzeTJe6IzV-20" value="" style="line;strokeWidth=4;direction=south;html=1;perimeter=backbonePerimeter;points=[];outlineConnect=0;" vertex="1" parent="1">
          <mxGeometry x="440" y="414" width="10" height="26" as="geometry" />
        </mxCell>
        <mxCell id="4VnncRjoAFdzeTJe6IzV-21" value="" style="line;strokeWidth=4;direction=south;html=1;perimeter=backbonePerimeter;points=[];outlineConnect=0;" vertex="1" parent="1">
          <mxGeometry x="580" y="414" width="10" height="26" as="geometry" />
        </mxCell>
        <mxCell id="4VnncRjoAFdzeTJe6IzV-22" value="" style="line;strokeWidth=4;direction=south;html=1;perimeter=backbonePerimeter;points=[];outlineConnect=0;" vertex="1" parent="1">
          <mxGeometry x="724" y="414" width="10" height="26" as="geometry" />
        </mxCell>
        <mxCell id="4VnncRjoAFdzeTJe6IzV-23" value="" style="line;strokeWidth=4;direction=south;html=1;perimeter=backbonePerimeter;points=[];outlineConnect=0;" vertex="1" parent="1">
          <mxGeometry x="475" y="390" width="10" height="26" as="geometry" />
        </mxCell>
      </root>
    </mxGraphModel>
  </diagram>
</mxfile>
